<svg id="visual" viewBox="0 0 1920 1080" width="1920" height="1080" xmlns="http://www.w3.org/2000/svg" xmlns:xlink="http://www.w3.org/1999/xlink" version="1.1"><rect x="0" y="0" width="1920" height="1080" fill="#341a15"></rect><path d="M1605 0L1357 0L1357 64L1574 64L1574 127L1335 127L1335 191L1310 191L1310 254L1510 254L1510 318L1338 318L1338 381L1587 381L1587 445L1448 445L1448 508L1567 508L1567 572L1583 572L1583 635L1518 635L1518 699L1441 699L1441 762L1408 762L1408 826L1482 826L1482 889L1565 889L1565 953L1446 953L1446 1016L1406 1016L1406 1080L0 1080L0 1016L0 1016L0 953L0 953L0 889L0 889L0 826L0 826L0 762L0 762L0 699L0 699L0 635L0 635L0 572L0 572L0 508L0 508L0 445L0 445L0 381L0 381L0 318L0 318L0 254L0 254L0 191L0 191L0 127L0 127L0 64L0 64L0 0L0 0Z" fill="#c23c25"></path><path d="M1370 0L1076 0L1076 64L1379 64L1379 127L1078 127L1078 191L1346 191L1346 254L1207 254L1207 318L1333 318L1333 381L1168 381L1168 445L1200 445L1200 508L1338 508L1338 572L1346 572L1346 635L1217 635L1217 699L1196 699L1196 762L1212 762L1212 826L1139 826L1139 889L1135 889L1135 953L1079 953L1079 1016L1211 1016L1211 1080L0 1080L0 1016L0 1016L0 953L0 953L0 889L0 889L0 826L0 826L0 762L0 762L0 699L0 699L0 635L0 635L0 572L0 572L0 508L0 508L0 445L0 445L0 381L0 381L0 318L0 318L0 254L0 254L0 191L0 191L0 127L0 127L0 64L0 64L0 0L0 0Z" fill="#ae3e26"></path><path d="M942 0L1003 0L1003 64L1082 64L1082 127L1049 127L1049 191L858 191L858 254L977 254L977 318L851 318L851 381L905 381L905 445L940 445L940 508L1013 508L1013 572L942 572L942 635L904 635L904 699L1002 699L1002 762L1122 762L1122 826L903 826L903 889L977 889L977 953L966 953L966 1016L1010 1016L1010 1080L0 1080L0 1016L0 1016L0 953L0 953L0 889L0 889L0 826L0 826L0 762L0 762L0 699L0 699L0 635L0 635L0 572L0 572L0 508L0 508L0 445L0 445L0 381L0 381L0 318L0 318L0 254L0 254L0 191L0 191L0 127L0 127L0 64L0 64L0 0L0 0Z" fill="#9b3f28"></path><path d="M699 0L693 0L693 64L572 64L572 127L641 127L641 191L857 191L857 254L853 254L853 318L740 318L740 381L746 381L746 445L655 445L655 508L820 508L820 572L730 572L730 635L634 635L634 699L802 699L802 762L736 762L736 826L677 826L677 889L735 889L735 953L837 953L837 1016L660 1016L660 1080L0 1080L0 1016L0 1016L0 953L0 953L0 889L0 889L0 826L0 826L0 762L0 762L0 699L0 699L0 635L0 635L0 572L0 572L0 508L0 508L0 445L0 445L0 381L0 381L0 318L0 318L0 254L0 254L0 191L0 191L0 127L0 127L0 64L0 64L0 0L0 0Z" fill="#873f2a"></path><path d="M598 0L537 0L537 64L367 64L367 127L472 127L472 191L596 191L596 254L453 254L453 318L601 318L601 381L419 381L419 445L658 445L658 508L360 508L360 572L653 572L653 635L404 635L404 699L469 699L469 762L425 762L425 826L637 826L637 889L548 889L548 953L482 953L482 1016L478 1016L478 1080L0 1080L0 1016L0 1016L0 953L0 953L0 889L0 889L0 826L0 826L0 762L0 762L0 699L0 699L0 635L0 635L0 572L0 572L0 508L0 508L0 445L0 445L0 381L0 381L0 318L0 318L0 254L0 254L0 191L0 191L0 127L0 127L0 64L0 64L0 0L0 0Z" fill="#743e2c"></path><path d="M185 0L175 0L175 64L212 64L212 127L370 127L370 191L172 191L172 254L354 254L354 318L255 318L255 381L268 381L268 445L287 445L287 508L227 508L227 572L393 572L393 635L96 635L96 699L166 699L166 762L304 762L304 826L174 826L174 889L342 889L342 953L398 953L398 1016L104 1016L104 1080L0 1080L0 1016L0 1016L0 953L0 953L0 889L0 889L0 826L0 826L0 762L0 762L0 699L0 699L0 635L0 635L0 572L0 572L0 508L0 508L0 445L0 445L0 381L0 381L0 318L0 318L0 254L0 254L0 191L0 191L0 127L0 127L0 64L0 64L0 0L0 0Z" fill="#613c2f"></path></svg>